<svg width="42" height="42" viewBox="0 0 42 42" fill="none" xmlns="http://www.w3.org/2000/svg">
<path fill-rule="evenodd" clip-rule="evenodd" d="M25.5676 40.3168C38.9982 39.9282 40.32 37.0973 40.32 21.0258C40.32 3.29214 38.71 1.67999 21 1.67999C3.29 1.67999 1.68 3.29214 1.68 21.0258C1.68 37.1392 3.00986 39.9427 16.537 40.32C16.6546 40.1733 16.698 39.9895 16.698 39.8025C16.698 39.3995 16.6819 35.2627 16.6739 33.8392C11.7844 34.8693 10.7524 31.5515 10.7524 31.5515C9.95219 29.5815 8.79943 29.0559 8.79943 29.0559C7.20391 27.9983 8.92018 28.0193 8.92018 28.0193C10.6847 28.1402 11.6137 29.7782 11.6137 29.7782C13.1819 32.385 15.7289 31.6321 16.7302 31.1952C16.8896 30.0941 17.3437 29.3413 17.846 28.9157C13.9418 28.4852 9.83788 27.0214 9.83788 20.4841C9.83788 18.6221 10.5237 17.1002 11.6475 15.9072C11.4656 15.4751 10.8634 13.7405 11.8198 11.3932C11.8198 11.3932 13.2962 10.9337 16.6546 13.1408C18.0569 12.7619 19.5606 12.5733 21.0563 12.5668C22.5488 12.5733 24.0525 12.7619 25.4581 13.1408C28.8149 10.9337 30.2881 11.3932 30.2881 11.3932C31.2476 13.7405 30.6439 15.4751 30.462 15.9072C31.589 17.1002 32.27 18.6221 32.27 20.4841C32.27 27.0375 28.1597 28.4804 24.2425 28.9011C24.8736 29.4283 25.4355 30.4698 25.4355 32.061C25.4355 33.586 25.4259 36.2832 25.4194 38.071C25.4162 38.9561 25.4146 39.6171 25.4146 39.8025C25.4146 39.9782 25.4613 40.1636 25.5676 40.3168Z" fill="black"/>
</svg>
