<svg width="38" height="38" viewBox="0 0 38 38" fill="none" xmlns="http://www.w3.org/2000/svg">
<path fill-rule="evenodd" clip-rule="evenodd" d="M33.3573 0C35.9197 0 38 2.08035 38 4.64268V33.3573C38 35.9197 35.9197 38 33.3573 38H4.64268C2.08035 38 0 35.9197 0 33.3573V4.64268C0 2.08035 2.08028 0 4.64268 0L33.3573 0ZM11.9092 31.4152V14.6627H6.33984V31.4152H11.9092ZM31.9883 31.4152V21.8084C31.9883 16.6626 29.2409 14.2688 25.5772 14.2688C22.623 14.2688 21.2997 15.8935 20.5587 17.0346V14.6627H14.9908C15.0646 16.2348 14.9908 31.4152 14.9908 31.4152H20.5587V22.0594C20.5587 21.5586 20.5947 21.0581 20.7423 20.7001C21.1441 19.7 22.0609 18.664 23.5993 18.664C25.6132 18.664 26.4201 20.2009 26.4201 22.4519V31.4152H31.9883ZM9.16216 6.58484C7.25666 6.58484 6.01172 7.83757 6.01172 9.47952C6.01172 11.0869 7.21881 12.3742 9.08846 12.3742H9.12438C11.0663 12.3742 12.2751 11.0869 12.2751 9.47952C12.2391 7.83987 11.0697 6.5884 9.16216 6.58484Z" fill="black"/>
</svg>
