<svg width="38" height="38" viewBox="0 0 38 38" fill="none" xmlns="http://www.w3.org/2000/svg">
<g clip-path="url(#clip0_36_31)">
<path d="M2.69056 37.8914C2.09796 37.7639 1.38621 37.3995 1.01363 37.0329C0.609861 36.6356 0.344025 36.164 0.153576 35.5073L0 34.9778V19.0971C0 4.25201 0.00750246 3.18722 0.115053 2.76983C0.399775 1.66486 1.0044 0.874403 1.89336 0.444952C2.87725 -0.0303635 1.69157 0.000404238 19.0246 0.000404238C36.2895 0.000404238 35.2188 -0.026365 36.1449 0.428439C37.0255 0.860948 37.619 1.66174 37.8792 2.76852C37.9942 3.25804 38 4.04089 38 19.1302C38 33.957 37.9926 35.0066 37.8847 35.4254C37.5391 36.7667 36.6608 37.6153 35.3258 37.8977C34.6618 38.0381 3.3445 38.032 2.69056 37.8914ZM33.6486 18.3014V7.29427H19.0332H4.41783V18.3014V29.3085H19.0332H33.6486V18.3014ZM9.45376 25.6781C10.2957 24.812 11.9559 23.1186 13.1432 21.9151L15.3019 19.727L16.1877 20.6232C17.1192 21.5657 17.448 21.7906 18.1783 21.9846C18.6466 22.109 19.5048 22.1065 19.9942 21.9793C20.6499 21.8088 21.0144 21.5611 21.9563 20.6457L22.8531 19.7742L25.7762 22.7579C27.3839 24.3989 29.0231 26.0816 29.4189 26.4973L30.1385 27.2529H19.0308H7.923L9.45376 25.6781ZM6.48425 18.3014L6.48451 10.8417L10.1636 14.551L13.8427 18.2603L11.8612 20.2866C10.7713 21.4011 9.11561 23.0888 8.1818 24.037L6.48398 25.761L6.48425 18.3014ZM30.4234 24.584C29.8094 23.9549 28.1721 22.2834 26.7849 20.8694L24.2627 18.2987L27.925 14.6365L31.5874 10.9744L31.5883 18.3511C31.5888 22.4083 31.5781 25.7278 31.5645 25.7278C31.5509 25.7278 31.0375 25.2131 30.4234 24.584ZM18.4434 19.9004C18.3199 19.8348 15.9093 17.4415 13.0864 14.582L7.95399 9.38297L13.5268 9.36601C16.5919 9.35669 21.6132 9.35669 24.6853 9.36601L30.2709 9.38297L25.0679 14.6148C21.8972 17.803 19.7811 19.8815 19.6504 19.936C19.3446 20.0635 18.7151 20.045 18.4434 19.9004Z" fill="black"/>
</g>
<defs>
<clipPath id="clip0_36_31">
<rect width="38" height="38" fill="white"/>
</clipPath>
</defs>
</svg>
